<svg width="48" height="48" viewBox="0 0 48 48" fill="none" xmlns="http://www.w3.org/2000/svg">
<circle cx="2.62835" cy="23.6549" r="2.62835" fill="white"/>
<circle cx="7.88826" cy="13.142" r="2.62835" fill="white"/>
<circle cx="7.88826" cy="23.6549" r="2.62835" fill="white"/>
<circle cx="13.14" cy="7.88564" r="2.62835" fill="white"/>
<circle cx="13.14" cy="13.142" r="2.62835" fill="white"/>
<circle cx="13.14" cy="23.6549" r="2.62835" fill="white"/>
<circle cx="13.14" cy="39.4284" r="2.62835" fill="white"/>
<circle cx="18.4024" cy="18.3979" r="2.62835" fill="white"/>
<circle cx="18.4024" cy="28.9119" r="2.62835" fill="white"/>
<circle cx="23.6546" cy="7.88564" r="2.62835" fill="white"/>
<circle cx="23.6546" cy="13.142" r="2.62835" fill="white"/>
<circle cx="23.6546" cy="23.6549" r="2.62835" fill="white"/>
<circle cx="23.6532" cy="2.62835" r="2.62835" fill="white"/>
<circle cx="28.9169" cy="18.3979" r="2.62835" fill="white"/>
<circle cx="28.9169" cy="28.9119" r="2.62835" fill="white"/>
<circle cx="34.1692" cy="7.88564" r="2.62835" fill="white"/>
<circle cx="23.6532" cy="39.4284" r="2.62835" fill="white"/>
<circle cx="34.1692" cy="13.142" r="2.62835" fill="white"/>
<circle cx="34.1692" cy="23.6549" r="2.62835" fill="white"/>
<circle cx="39.4277" cy="13.142" r="2.62835" fill="white"/>
<circle cx="39.4277" cy="23.6549" r="2.62835" fill="white"/>
<circle cx="44.6833" cy="23.6549" r="2.62835" fill="white"/>
<circle cx="7.88826" cy="34.1683" r="2.62835" fill="white"/>
<circle cx="13.1401" cy="34.1683" r="2.62835" fill="white"/>
<circle cx="23.6532" cy="44.6884" r="2.62835" fill="white"/>
<circle cx="23.6546" cy="34.1683" r="2.62835" fill="white"/>
<circle cx="34.1732" cy="39.4284" r="2.62835" fill="white"/>
<circle cx="34.1692" cy="34.1683" r="2.62835" fill="white"/>
<circle cx="39.4277" cy="34.1683" r="2.62835" fill="white"/>
</svg>
